<?xml version="1.0" standalone="no"?>
<!DOCTYPE svg PUBLIC "-//W3C//DTD SVG 20010904//EN"
 "http://www.w3.org/TR/2001/REC-SVG-20010904/DTD/svg10.dtd">
<svg version="1.0" xmlns="http://www.w3.org/2000/svg"
 width="266.000000pt" height="266.000000pt" viewBox="0 0 266.000000 266.000000"
 preserveAspectRatio="xMidYMid meet">
<metadata>
Created by potrace 1.11, written by Peter Selinger 2001-2013
</metadata>
<g transform="translate(0.000000,266.000000) scale(0.100000,-0.100000)"
fill="#000000" stroke="none">
<path d="M2092 2554 c-24 -7 -83 -32 -132 -54 -110 -50 -170 -55 -312 -22
-119 27 -186 35 -303 35 -159 1 -301 -18 -443 -59 -75 -22 -135 -12 -252 42
-105 47 -179 66 -250 62 -180 -9 -345 -153 -378 -330 -22 -114 3 -241 71 -372
l40 -78 -16 -42 c-24 -61 -73 -224 -86 -281 -34 -157 -29 -491 9 -591 5 -13 8
-24 5 -24 -6 0 39 -128 65 -185 136 -293 452 -497 894 -577 94 -17 160 -22
301 -23 196 0 250 4 402 34 348 67 628 231 775 453 30 46 64 103 76 128 27 57
70 206 77 268 4 26 8 58 11 72 6 35 6 264 -1 325 -14 145 -55 296 -115 429
l-22 49 30 61 c55 113 67 162 67 281 0 103 -2 114 -31 176 -39 83 -116 159
-202 201 -55 27 -76 32 -151 34 -50 1 -104 -4 -129 -12z"/>
</g>
</svg>
